# xmcd CD database file
#
# Track frame offsets:
#	150
#	19447
#	28882
#	45765
#	58912
#	66640
#	78575
#	94080
#	108622
#	124135
#	137405
#	150200
#	163090
#	181227
#	191285
#	203122
#	216277
#	230360
#	243050
#	253480
#	263120
#	278012
#	292412
#	305902
#	317357
#
# Disc length: 4345 seconds
#
# Revision: 2
# Processed by: cddbd v1.5.2PL0 Copyright (c) Steve Scherf et al.
# Submitted via: CDex 1.70beta2
#
DISCID=7210f719
DTITLE=カイリー・ミノーグ - Unknown CD for MusicBrainz and FreeDB
DYEAR=2002
DGENRE=
TTITLE0=カイリー・ミノーグ/イン・ユア・アイズ(ミスター・ビシ・ミックス)
TTITLE1=DJミラノ/サンタ・マリア(2002トランス・リミックス)
TTITLE2=ベリーニ/ブラジル(カーニヴァル・ミックス)
TTITLE3=ジェリ・ハリウェル/コーリング(ウィプ・ミックス)
TTITLE4=ビーナス/サンシャイン・イン・アワ・ミュージック
TTITLE5=バハ・メン/ムーブ・イット・ライク・ディス(シェイク・イット・ライク・ザット・ミックス)
TTITLE6=ポーンスターツ/ポーン・スター
TTITLE7=ハンナ・ジョーンズ/イン・ザ・ネーム・オブ・ラブ
TTITLE8=リバティー/シンキング・イット・オーヴァー(オールマイティ・ミックス)
TTITLE9=フーズ・ザット・ガール/ライク・ア・プレイヤー
TTITLE10=デリシャス/ボディ・ロック
TTITLE11=オールマイティー・オールスターズ・フィーチャリング・リー/リトル・リスペクト
TTITLE12=ロシェール/ゼア・ユール・ボディ
TTITLE13=ロシェール/エターナル・フレーム
TTITLE14=エクストリーム/ワーク・ユア・ボディ
TTITLE15=バス・ストップ/ロンリー・ハート
TTITLE16=アルティメット・ヘイツ/パンプ・ザ・リズム(スコーシオ・ミックス)
TTITLE17=ストーン・フェイザーズ/ジョン・ウェイン(スリーズシスターズ・アンセム・ミックス)
TTITLE18=2 アンリミテッド/マジック・フレンド(MST・クラブ・ミックス)
TTITLE19=テス/コンフュージョン
TTITLE20=クラブスター/クラブスター(エクステンデット・リミックス)
TTITLE21=N-トランス/フォーエヴァー(オーヴァーナイト・ミックス)
TTITLE22=DJキー/レスペランザ
TTITLE23=クレリカル/セーフ・セックス
TTITLE24=ポーン・キングス/スレッジャー(ナスティー・ボーイズ・リミックス)
EXTD=YEAR: 2002
EXTT0=
EXTT1=
EXTT2=
EXTT3=
EXTT4=
EXTT5=
EXTT6=
EXTT7=
EXTT8=
EXTT9=
EXTT10=
EXTT11=
EXTT12=
EXTT13=
EXTT14=
EXTT15=
EXTT16=
EXTT17=
EXTT18=
EXTT19=
EXTT20=
EXTT21=
EXTT22=
EXTT23=
EXTT24=
PLAYORDER=
